<svg width="112" height="98" xmlns="http://www.w3.org/2000/svg"><g id="Page-1" fill="none" fill-rule="evenodd"><g id="pgtune" fill-rule="nonzero"><path d="M25.3 96.8h-7.1c-1.4 0-2.8-.7-4.4-2.2-2.4-2.2-3.9-5-4.9-7.1-1-2.2-3.3-7.8-4-10-2.2-6.7-3.2-11.4-3.2-14 0-.3-.1-3.6.4-6.4.4-2.6 1-6.6 2.8-11.5 1.9-5 3.6-7.9 8.7-14.2 2.8-3.5 6.1-7 9.5-10.2 3.9-3.7 8.2-6.8 12.2-9.6C48.8 2.2 60 1.5 63.1 1.5c1.2 0 2.7.1 4.4.2 5.1.4 7.4 1.2 8.9 1.7l.5.2c7.6 2.7 11.5 6.3 13.6 8.3l.3.3c2.8 2.6 7.1 6.9 11.1 13.6 2.5 4.1 5.3 11 7.7 19.2.7 2.5 1.2 11.2.9 14.7-.2 2.6-1 7.8-3.6 13.3-2.1 4.4-4.5 9.4-8.3 13-1.9 1.8-4.4 3.5-6.9 4.7-2.9 1.4-8.2 2.1-8.4 2.1-4.8 0-6.3-.8-7.4-2.4-.7-.9-.4-1.6-.2-1.9l.5-.8.9-2.1c.5-1.2.9-2.4 1.7-3.6l.1-.2c.7-1 1.4-1.9 2.3-1.9l.1-.2h.9l.3.3s.1.1.2.1c.3.3.7.6 1.1.6h.2c.8-.2 1.7-.6 3.8-3.3 2.8-3.6 3.6-5.2 4.5-7 .2-.4.3-.7.5-1.1 1.4-2.7 2.5-7.6 1.8-12.4-.7-4.9-1.6-7.5-4.8-10.3-1.3-1.1-2.7-1.4-3.5-1.4-.4 0-.6 0-.7.1h-.1v.8c0 .1.6 9.3.4 11.8-.3 5-.8 8.8-1.6 11.3-.9 2.9-2.6 6.1-4.7 9.9-.2.3-.4.7-.6 1.1-.3.5-.6 1.1-.7 1.3-.1.2-2.4 5.1-2.5 5.2v.1c-1.3 2.2-2.1 3.5-2.6 4.1-.7 1-2 2.5-2.8 3.2-1.3 1.4-3 2.2-5 2.2h-9.1c-2.1 0-3.6-1-4.2-2.8l-.3-.9c-.4-1.3-1-3.3-2.1-4.7-1.3-1.7-2.8-2.6-6-2.7h-.2c-2.3 0-5.1.1-5.8.4-1.5.5-1.5.5-1.7 1.6-.4 1.5-.3 1.9-.1 3.5v.2c.4 3.2-.8 4.5-1.9 5.1-.7.4-1.6.4-3 .4h-.7c-1.3.4-3.6.4-5 .4zm17.9-69.7c-.4 1.7-.5 3.5-.4 5.2.1 2.5.8 6.4 3.6 10.9 2.8 4.6 7.1 6.9 8.8 7.7 1 .5 2.3.8 3.7 1-.5-.2-1-.3-1.5-.5-4.7-2.1-6.1-3.7-7.5-5.4l-.1-.1c-2-2.3-3.4-4.7-4.8-8.2-1.7-4.3-2-7.2-1.8-10.3v-.3zm27.6-4.4c-.2.3-.6 1.8-.1 4.1.5 2.2 1.4 3.4 1.8 3.6.3-.4.6-1.8.1-4.1-.5-2.2-1.4-3.4-1.8-3.6z" id="Shape" fill="#cdd9ea"/><path d="M63.2 2.5c1.2 0 2.6.1 4.3.2 5 .3 7.2 1.2 8.7 1.7.2.1.4.1.5.2 7.8 2.8 11.6 6.5 13.5 8.4 2.8 2.6 7 6.8 11 13.4 2.5 4.1 5.2 10.8 7.6 19v.1c.7 2.3 1.1 10.9.8 14.2-.2 2.6-1 7.6-3.5 13-2.1 4.3-4.4 9.2-8.1 12.7-1.9 1.7-4.2 3.3-6.7 4.5-2.8 1.3-7.9 2-7.9 2-4.7 0-5.8-.9-6.6-2-.4-.6-.2-.7-.2-.7l.5-.9c.9-2 1.4-3.8 2.5-5.6.3-.4 1.1-1.6 1.6-1.6h.3c.4 0 .3-.2.3-.2l.2.2c.5.4 1.1.8 1.7.8h.4c1.2-.3 2.3-1 4.4-3.6 2.9-3.7 3.7-5.3 4.6-7.2.2-.3.3-.7.5-1.1 1.4-2.9 2.6-8 1.9-13-.7-5-1.7-8-5.1-10.9-1.6-1.3-3.1-1.6-4.2-1.6-.6 0-1 .1-1.1.1-.1 0-.1.1-.2.1-.2.1-.3.2-.3.3-.1.2-.2.5-.2 1.5.1 1.8.5 9.6.4 11.7-.3 4.9-.8 8.6-1.5 11.1-.8 2.7-2.3 5.6-4.6 9.7-.3.5-1 1.9-1.3 2.4l-2.5 5.3c-1.2 1.9-2.1 3.4-2.5 4.1-.8 1.2-2.6 3.1-2.7 3.2-.4.4-1.7 1.8-4.3 1.8h-9.2c-1.6 0-2.7-.8-3.2-2.1l-.3-.9c-.4-1.4-1-3.4-2.3-5-1.5-1.8-3.2-3-6.8-3h-.2c-1.2 0-5 0-6.1.4-1.8.6-2 .9-2.4 2.3-.4 1.6-.3 2.2-.1 3.8v.2c.3 2.6-.6 3.6-1.4 4.1-.5.3-1.3.3-2.6.3H18c-1.1 0-2.3-.6-3.7-1.9-2.3-2.1-3.7-4.7-4.7-6.8-1-2.1-3.3-7.7-4-9.9-2.1-6.6-3.2-11.2-3.1-13.7 0-.3-.1-3.5.4-6.3.4-2.6.9-6.5 2.8-11.3 1.8-4.9 3.6-7.7 8.6-13.9 2.8-3.4 6-6.9 9.4-10 3.9-3.6 8.1-6.7 12.1-9.5C49.2 3.2 60.3 2.5 63.2 2.5zm-9 10s-2.4 1-5.4 3.2c-1.8 1.4-3.4 3.3-4.7 5.9-.6 1.1-2.6 5.2-2.3 10.8.2 3.1 1.1 7.1 3.7 11.4 2.4 4 6.2 6.7 9.3 8.1 2 .9 4.9 1.4 7.7 1.4 1.5 0 2.9-.1 4.2-.4 3.5-.8 6.1-2.3 7.3-3.1 1.2-.8 3-2.5 3-2.5s-1.9 1.4-3.3 2c-1.4.7-3.6 1.4-5.2 1.7-.9.2-2.9.6-5.2.6-1.7 0-3.6-.2-5.4-1-4.6-2.1-5.9-3.6-7.3-5.2-1.7-2-3.1-4.2-4.6-7.9-1.6-4-1.9-6.8-1.8-9.9.1-2.9.6-4.3 1.3-5.8.6-1.5 1.9-3.6 3.5-5.2 1.7-2 5.1-4 5.2-4.1zm18.4 19h.2c1.1-.2 1.4-2.6.8-5.3-.6-2.5-1.8-4.5-2.8-4.5h-.2c-1.1.2-1.4 2.6-.8 5.3.5 2.6 1.8 4.5 2.8 4.5zM63.2.5C50.6.5 38.3 8.4 34.8 10.8c-4 2.8-8.3 5.9-12.3 9.6-3.4 3.2-6.7 6.7-9.6 10.3-5.2 6.4-7 9.4-8.9 14.5-1.9 5.1-2.5 9.1-2.9 11.7-.4 2.9-.4 6.1-.4 6.6 0 2.7 1 7.4 3.2 14.3.7 2.3 3 7.9 4.1 10.2 1.1 2.2 2.6 5.1 5.1 7.4 1.8 1.7 3.4 2.4 5 2.4h12.6c1.3 0 2.5 0 3.5-.6 1.1-.6 2.9-2.2 2.4-6.1v-.2c-.2-1.6-.2-1.8.1-3.1.1-.2.1-.4.1-.5.2-.1.5-.2 1-.4s3-.3 5.4-.3h.2c2.9 0 4 .8 5.3 2.3 1 1.3 1.6 3.1 1.9 4.3.1.4.2.7.3 1 .7 2.2 2.6 3.5 5.1 3.5h9.2c2.3 0 4.2-.9 5.7-2.5.9-1 2.2-2.4 2.9-3.4.2-.3.5-.7.8-1.3.1.1.2.3.3.4 1.3 1.8 3.1 2.8 8.3 2.8.4 0 5.8-.8 8.8-2.2 2.6-1.3 5.2-3 7.2-4.9 4-3.7 6.4-8.8 8.5-13.3 2.7-5.6 3.5-11 3.7-13.7.3-3.3-.1-12.2-.9-15v-.1c-2.5-8.3-5.3-15.2-7.8-19.4-4.2-6.8-8.5-11.2-11.3-13.8l-.3-.3C89 9 85 5.3 77.2 2.5l-.2-.1-.3-.1c-1.6-.6-4-1.4-9.2-1.8-1.6.1-3.1 0-4.3 0zm18 78.4c1.9-3.4 3.4-6.4 4.2-9.1.8-2.6 1.3-6.5 1.6-11.5.1-2.4-.3-10.6-.4-11.8.7 0 1.6.3 2.6 1.1 3 2.6 3.8 4.9 4.5 9.7.7 4.6-.4 9.3-1.7 11.8-.2.4-.4.7-.5 1.1-.9 1.8-1.6 3.3-4.4 6.8-1.8 2.3-2.6 2.7-3.2 2.9-.1 0-.2-.1-.4-.3l-.1-.1-.6-.5h-1.6v-.1z" id="Shape" fill="#656b74"/></g></g></svg>
