<svg fill="none" height="680" viewBox="0 0 1360 680" width="1360" xmlns="http://www.w3.org/2000/svg" xmlns:xlink="http://www.w3.org/1999/xlink"><clipPath id="a"><path d="m0 0h1360v680h-1360z"/></clipPath><mask id="b" height="680" maskUnits="userSpaceOnUse" width="1360" x="0" y="0"><path d="m1360 0h-1360v680h1360z" fill="#fff"/></mask><mask id="c" height="20" maskUnits="userSpaceOnUse" width="68" x="1054" y="634"><path d="m1112 634h-48c-5.52 0-10 4.477-10 10s4.48 10 10 10h48c5.52 0 10-4.477 10-10s-4.48-10-10-10z" fill="#fff"/></mask><mask id="d" height="518" maskUnits="userSpaceOnUse" width="359" x="754" y="71"><path d="m933.5 71c99.14 0 179.5 80.365 179.5 179.5v199.5c0 76.768-62.23 139-139 139h-81c-76.768 0-139-62.232-139-139v-199.5c0-99.135 80.365-179.5 179.5-179.5z" fill="#fff"/></mask><mask id="e" height="266" maskUnits="userSpaceOnUse" width="239" x="582" y="25"><path d="m582.01 25.7464c40.686 1.2916 73.542 33.6444 75.462 74.3056l1.987 42.09c2.079 44.053 38.42 78.69 82.522 78.653l43.91-.037c19.257-.016 34.881 15.582 34.897 34.839v.029c0 19.025-15.423 34.449-34.449 34.449-.148 0-.297-.001-.446-.003l-68.552-.888c-55.085-.713-100.093-44.189-102.715-99.216l-3.325-69.807c-.684-14.379-12.896-25.4794-27.274-24.7946-.674.0322-1.347.0905-2.017.1748z" fill="#fff"/></mask><mask id="f" height="185" maskUnits="userSpaceOnUse" width="127" x="783" y="493"><path d="m793 493h107c5.523 0 10 4.477 10 10v111.5c0 35.07-28.43 63.5-63.5 63.5s-63.5-28.43-63.5-63.5v-111.5c0-5.523 4.477-10 10-10z" fill="#fff"/></mask><mask id="g" height="195" maskUnits="userSpaceOnUse" width="187" x="608" y="463"><path d="m708.974 466.252 81.967 68.778c4.231 3.55 4.783 9.858 1.233 14.088l-71.671 85.414c-22.543 26.866-62.596 30.37-89.461 7.827-26.865-22.542-30.369-62.595-7.827-89.461l71.671-85.414c3.55-4.23 9.858-4.782 14.088-1.232z" fill="#fff"/></mask><mask id="h" height="101" maskUnits="userSpaceOnUse" width="218" x="841" y="354"><path d="m960.794 358.671 77.566 27.077c12.04 4.205 20.11 15.567 20.11 28.324v10.737c0 16.569-13.43 30-30 30h-186.871l34.67-63.567c16.406-30.081 52.176-43.864 84.525-32.571z" fill="#fff"/></mask><g clip-path="url(#a)"><g mask="url(#b)"><path d="m1360 0h-1360v680h1360z" fill="#5bbba9"/><path clip-rule="evenodd" d="m0 530h920v110c0 22.091-17.909 40-40 40h-880z" fill="#fdb148" fill-rule="evenodd"/><path clip-rule="evenodd" d="m440 258h920v232c0 22.091-17.91 40-40 40h-840c-22.091 0-40-17.909-40-40z" fill="#ff615e" fill-rule="evenodd"/><path clip-rule="evenodd" d="m440 408h920v272h-880c-22.091 0-40-17.909-40-40z" fill="#399ce7" fill-rule="evenodd"/><path clip-rule="evenodd" d="m0 231h920v260c0 22.091-17.909 40-40 40h-880z" fill="#399ce7" fill-rule="evenodd"/><path d="m1180 152h-885v570h885z" fill="#2e3139"/><path d="m295 152h-113v570h113z" fill="#353a44"/><path d="m294 225h-112v17h112z" fill="#444c5b"/><path d="m295 131h-113v21h113z" fill="#444c5b"/><path clip-rule="evenodd" d="m197 96h976c3.87 0 7 3.134 7 7v28h-998v-20c0-8.284 6.716-15 15-15z" fill="#e1e4e6" fill-rule="evenodd"/><path d="m203.5 121c3.59 0 6.5-2.91 6.5-6.5s-2.91-6.5-6.5-6.5-6.5 2.91-6.5 6.5 2.91 6.5 6.5 6.5z" fill="#ff615e"/><path d="m223.5 121c3.59 0 6.5-2.91 6.5-6.5s-2.91-6.5-6.5-6.5-6.5 2.91-6.5 6.5 2.91 6.5 6.5 6.5z" fill="#fdb148"/><path d="m243.5 121c3.59 0 6.5-2.91 6.5-6.5s-2.91-6.5-6.5-6.5-6.5 2.91-6.5 6.5 2.91 6.5 6.5 6.5z" fill="#00c6b8"/><path d="m382 131h-87v21h87z" fill="#2e3139"/><path d="m1180 131h-725v21h725z" fill="#2e3139"/><path d="m454 131h-75v21h75z" fill="#3a3f4b"/><path d="m329 197h-1v351h1z" fill="#364b59"/><path d="m343 281h-1v256h1z" fill="#364b59"/><path d="m356 405h-1v30h1z" fill="#364b59"/><path d="m370 413h-1v13h1z" fill="#364b59"/><path d="m370 491h-1v23h1z" fill="#364b59"/><path d="m356 482h-1v42h1z" fill="#364b59"/><path d="m380.5 163h-51c-1.381 0-2.5 1.119-2.5 2.5s1.119 2.5 2.5 2.5h51c1.381 0 2.5-1.119 2.5-2.5s-1.119-2.5-2.5-2.5z" fill="#d8d8d8"/><path d="m435.5 140h-40c-1.381 0-2.5 1.119-2.5 2.5s1.119 2.5 2.5 2.5h40c1.381 0 2.5-1.119 2.5-2.5s-1.119-2.5-2.5-2.5z" fill="#d8d8d8"/><path d="m242.5 140h-40c-1.381 0-2.5 1.119-2.5 2.5s1.119 2.5 2.5 2.5h40c1.381 0 2.5-1.119 2.5-2.5s-1.119-2.5-2.5-2.5z" fill="#d8d8d8"/><path d="m355.5 140h-40c-1.381 0-2.5 1.119-2.5 2.5s1.119 2.5 2.5 2.5h40c1.381 0 2.5-1.119 2.5-2.5s-1.119-2.5-2.5-2.5z" fill="#5a7485"/><path d="m505.5 140h-40c-1.381 0-2.5 1.119-2.5 2.5s1.119 2.5 2.5 2.5h40c1.381 0 2.5-1.119 2.5-2.5s-1.119-2.5-2.5-2.5z" fill="#5a7485"/><path d="m515 140h-1.5c-1.381 0-2.5 1.119-2.5 2.5s1.119 2.5 2.5 2.5h1.5c1.381 0 2.5-1.119 2.5-2.5s-1.119-2.5-2.5-2.5z" fill="#5a7485"/><path d="m445 140h-1.5c-1.381 0-2.5 1.119-2.5 2.5s1.119 2.5 2.5 2.5h1.5c1.381 0 2.5-1.119 2.5-2.5s-1.119-2.5-2.5-2.5z" fill="#5a7485"/><path d="m365 140h-1.5c-1.381 0-2.5 1.119-2.5 2.5s1.119 2.5 2.5 2.5h1.5c1.381 0 2.5-1.119 2.5-2.5s-1.119-2.5-2.5-2.5z" fill="#5a7485"/><path d="m194 140h-1.5c-1.381 0-2.5 1.119-2.5 2.5s1.119 2.5 2.5 2.5h1.5c1.381 0 2.5-1.119 2.5-2.5s-1.119-2.5-2.5-2.5z" fill="#5a7485"/><path d="m194 163h-1.5c-1.381 0-2.5 1.119-2.5 2.5s1.119 2.5 2.5 2.5h1.5c1.381 0 2.5-1.119 2.5-2.5s-1.119-2.5-2.5-2.5z" fill="#5a7485"/><g fill="#d8d8d8"><path d="m312 163h-1.5c-1.381 0-2.5 1.119-2.5 2.5s1.119 2.5 2.5 2.5h1.5c1.381 0 2.5-1.119 2.5-2.5s-1.119-2.5-2.5-2.5z"/><path d="m312 174h-1.5c-1.381 0-2.5 1.119-2.5 2.5s1.119 2.5 2.5 2.5h1.5c1.381 0 2.5-1.119 2.5-2.5s-1.119-2.5-2.5-2.5z"/><path d="m312 185h-1.5c-1.381 0-2.5 1.119-2.5 2.5s1.119 2.5 2.5 2.5h1.5c1.381 0 2.5-1.119 2.5-2.5s-1.119-2.5-2.5-2.5z"/><path d="m312 196h-1.5c-1.381 0-2.5 1.119-2.5 2.5s1.119 2.5 2.5 2.5h1.5c1.381 0 2.5-1.119 2.5-2.5s-1.119-2.5-2.5-2.5z"/><path d="m312 207h-1.5c-1.381 0-2.5 1.119-2.5 2.5s1.119 2.5 2.5 2.5h1.5c1.381 0 2.5-1.119 2.5-2.5s-1.119-2.5-2.5-2.5z"/><path d="m312 218h-1.5c-1.381 0-2.5 1.119-2.5 2.5s1.119 2.5 2.5 2.5h1.5c1.381 0 2.5-1.119 2.5-2.5s-1.119-2.5-2.5-2.5z"/><path d="m312 229h-1.5c-1.381 0-2.5 1.119-2.5 2.5s1.119 2.5 2.5 2.5h1.5c1.381 0 2.5-1.119 2.5-2.5s-1.119-2.5-2.5-2.5z"/><path d="m312 240h-1.5c-1.381 0-2.5 1.119-2.5 2.5s1.119 2.5 2.5 2.5h1.5c1.381 0 2.5-1.119 2.5-2.5s-1.119-2.5-2.5-2.5z"/><path d="m312 251h-1.5c-1.381 0-2.5 1.119-2.5 2.5s1.119 2.5 2.5 2.5h1.5c1.381 0 2.5-1.119 2.5-2.5s-1.119-2.5-2.5-2.5z"/><path d="m312 263h-1.5c-1.381 0-2.5 1.119-2.5 2.5s1.119 2.5 2.5 2.5h1.5c1.381 0 2.5-1.119 2.5-2.5s-1.119-2.5-2.5-2.5z"/><path d="m312 274h-1.5c-1.381 0-2.5 1.119-2.5 2.5s1.119 2.5 2.5 2.5h1.5c1.381 0 2.5-1.119 2.5-2.5s-1.119-2.5-2.5-2.5z"/><path d="m312 285h-1.5c-1.381 0-2.5 1.119-2.5 2.5s1.119 2.5 2.5 2.5h1.5c1.381 0 2.5-1.119 2.5-2.5s-1.119-2.5-2.5-2.5z"/><path d="m312 296h-1.5c-1.381 0-2.5 1.119-2.5 2.5s1.119 2.5 2.5 2.5h1.5c1.381 0 2.5-1.119 2.5-2.5s-1.119-2.5-2.5-2.5z"/><path d="m312 307h-1.5c-1.381 0-2.5 1.119-2.5 2.5s1.119 2.5 2.5 2.5h1.5c1.381 0 2.5-1.119 2.5-2.5s-1.119-2.5-2.5-2.5z"/><path d="m312 318h-1.5c-1.381 0-2.5 1.119-2.5 2.5s1.119 2.5 2.5 2.5h1.5c1.381 0 2.5-1.119 2.5-2.5s-1.119-2.5-2.5-2.5z"/><path d="m312 329h-1.5c-1.381 0-2.5 1.119-2.5 2.5s1.119 2.5 2.5 2.5h1.5c1.381 0 2.5-1.119 2.5-2.5s-1.119-2.5-2.5-2.5z"/><path d="m312 340h-1.5c-1.381 0-2.5 1.119-2.5 2.5s1.119 2.5 2.5 2.5h1.5c1.381 0 2.5-1.119 2.5-2.5s-1.119-2.5-2.5-2.5z"/><path d="m312 351h-1.5c-1.381 0-2.5 1.119-2.5 2.5s1.119 2.5 2.5 2.5h1.5c1.381 0 2.5-1.119 2.5-2.5s-1.119-2.5-2.5-2.5z"/><path d="m312 363h-1.5c-1.381 0-2.5 1.119-2.5 2.5s1.119 2.5 2.5 2.5h1.5c1.381 0 2.5-1.119 2.5-2.5s-1.119-2.5-2.5-2.5z"/><path d="m312 374h-1.5c-1.381 0-2.5 1.119-2.5 2.5s1.119 2.5 2.5 2.5h1.5c1.381 0 2.5-1.119 2.5-2.5s-1.119-2.5-2.5-2.5z"/><path d="m312 385h-1.5c-1.381 0-2.5 1.119-2.5 2.5s1.119 2.5 2.5 2.5h1.5c1.381 0 2.5-1.119 2.5-2.5s-1.119-2.5-2.5-2.5z"/><path d="m312 396h-1.5c-1.381 0-2.5 1.119-2.5 2.5s1.119 2.5 2.5 2.5h1.5c1.381 0 2.5-1.119 2.5-2.5s-1.119-2.5-2.5-2.5z"/><path d="m312 407h-1.5c-1.381 0-2.5 1.119-2.5 2.5s1.119 2.5 2.5 2.5h1.5c1.381 0 2.5-1.119 2.5-2.5s-1.119-2.5-2.5-2.5z"/><path d="m312 418h-1.5c-1.381 0-2.5 1.119-2.5 2.5s1.119 2.5 2.5 2.5h1.5c1.381 0 2.5-1.119 2.5-2.5s-1.119-2.5-2.5-2.5z"/><path d="m312 429h-1.5c-1.381 0-2.5 1.119-2.5 2.5s1.119 2.5 2.5 2.5h1.5c1.381 0 2.5-1.119 2.5-2.5s-1.119-2.5-2.5-2.5z"/><path d="m312 440h-1.5c-1.381 0-2.5 1.119-2.5 2.5s1.119 2.5 2.5 2.5h1.5c1.381 0 2.5-1.119 2.5-2.5s-1.119-2.5-2.5-2.5z"/><path d="m312 451h-1.5c-1.381 0-2.5 1.119-2.5 2.5s1.119 2.5 2.5 2.5h1.5c1.381 0 2.5-1.119 2.5-2.5s-1.119-2.5-2.5-2.5z"/><path d="m312 463h-1.5c-1.381 0-2.5 1.119-2.5 2.5s1.119 2.5 2.5 2.5h1.5c1.381 0 2.5-1.119 2.5-2.5s-1.119-2.5-2.5-2.5z"/><path d="m312 474h-1.5c-1.381 0-2.5 1.119-2.5 2.5s1.119 2.5 2.5 2.5h1.5c1.381 0 2.5-1.119 2.5-2.5s-1.119-2.5-2.5-2.5z"/><path d="m312 485h-1.5c-1.381 0-2.5 1.119-2.5 2.5s1.119 2.5 2.5 2.5h1.5c1.381 0 2.5-1.119 2.5-2.5s-1.119-2.5-2.5-2.5z"/><path d="m312 496h-1.5c-1.381 0-2.5 1.119-2.5 2.5s1.119 2.5 2.5 2.5h1.5c1.381 0 2.5-1.119 2.5-2.5s-1.119-2.5-2.5-2.5z"/><path d="m312 507h-1.5c-1.381 0-2.5 1.119-2.5 2.5s1.119 2.5 2.5 2.5h1.5c1.381 0 2.5-1.119 2.5-2.5s-1.119-2.5-2.5-2.5z"/><path d="m312 518h-1.5c-1.381 0-2.5 1.119-2.5 2.5s1.119 2.5 2.5 2.5h1.5c1.381 0 2.5-1.119 2.5-2.5s-1.119-2.5-2.5-2.5z"/><path d="m312 529h-1.5c-1.381 0-2.5 1.119-2.5 2.5s1.119 2.5 2.5 2.5h1.5c1.381 0 2.5-1.119 2.5-2.5s-1.119-2.5-2.5-2.5z"/><path d="m312 540h-1.5c-1.381 0-2.5 1.119-2.5 2.5s1.119 2.5 2.5 2.5h1.5c1.381 0 2.5-1.119 2.5-2.5s-1.119-2.5-2.5-2.5z"/><path d="m312 551h-1.5c-1.381 0-2.5 1.119-2.5 2.5s1.119 2.5 2.5 2.5h1.5c1.381 0 2.5-1.119 2.5-2.5s-1.119-2.5-2.5-2.5z"/><path d="m312 561h-1.5c-1.381 0-2.5 1.119-2.5 2.5s1.119 2.5 2.5 2.5h1.5c1.381 0 2.5-1.119 2.5-2.5s-1.119-2.5-2.5-2.5z"/><path d="m312 572h-1.5c-1.381 0-2.5 1.119-2.5 2.5s1.119 2.5 2.5 2.5h1.5c1.381 0 2.5-1.119 2.5-2.5s-1.119-2.5-2.5-2.5z"/><path d="m312 583h-1.5c-1.381 0-2.5 1.119-2.5 2.5s1.119 2.5 2.5 2.5h1.5c1.381 0 2.5-1.119 2.5-2.5s-1.119-2.5-2.5-2.5z"/><path d="m312 594h-1.5c-1.381 0-2.5 1.119-2.5 2.5s1.119 2.5 2.5 2.5h1.5c1.381 0 2.5-1.119 2.5-2.5s-1.119-2.5-2.5-2.5z"/><path d="m312 605h-1.5c-1.381 0-2.5 1.119-2.5 2.5s1.119 2.5 2.5 2.5h1.5c1.381 0 2.5-1.119 2.5-2.5s-1.119-2.5-2.5-2.5z"/><path d="m312 616h-1.5c-1.381 0-2.5 1.119-2.5 2.5s1.119 2.5 2.5 2.5h1.5c1.381 0 2.5-1.119 2.5-2.5s-1.119-2.5-2.5-2.5z"/><path d="m312 627h-1.5c-1.381 0-2.5 1.119-2.5 2.5s1.119 2.5 2.5 2.5h1.5c1.381 0 2.5-1.119 2.5-2.5s-1.119-2.5-2.5-2.5z"/><path d="m312 638h-1.5c-1.381 0-2.5 1.119-2.5 2.5s1.119 2.5 2.5 2.5h1.5c1.381 0 2.5-1.119 2.5-2.5s-1.119-2.5-2.5-2.5z"/><path d="m312 649h-1.5c-1.381 0-2.5 1.119-2.5 2.5s1.119 2.5 2.5 2.5h1.5c1.381 0 2.5-1.119 2.5-2.5s-1.119-2.5-2.5-2.5z"/><path d="m312 660h-1.5c-1.381 0-2.5 1.119-2.5 2.5s1.119 2.5 2.5 2.5h1.5c1.381 0 2.5-1.119 2.5-2.5s-1.119-2.5-2.5-2.5z"/></g><path d="m209 163h-6.5c-1.381 0-2.5 1.119-2.5 2.5s1.119 2.5 2.5 2.5h6.5c1.381 0 2.5-1.119 2.5-2.5s-1.119-2.5-2.5-2.5z" fill="#5a7485"/><path d="m194 203h-1.5c-1.381 0-2.5 1.119-2.5 2.5s1.119 2.5 2.5 2.5h1.5c1.381 0 2.5-1.119 2.5-2.5s-1.119-2.5-2.5-2.5z" fill="#5a7485"/><path d="m209 203h-6.5c-1.381 0-2.5 1.119-2.5 2.5s1.119 2.5 2.5 2.5h6.5c1.381 0 2.5-1.119 2.5-2.5s-1.119-2.5-2.5-2.5z" fill="#5a7485"/><path d="m194 263h-1.5c-1.381 0-2.5 1.119-2.5 2.5s1.119 2.5 2.5 2.5h1.5c1.381 0 2.5-1.119 2.5-2.5s-1.119-2.5-2.5-2.5z" fill="#5a7485"/><path d="m217 263h-14.5c-1.381 0-2.5 1.119-2.5 2.5s1.119 2.5 2.5 2.5h14.5c1.381 0 2.5-1.119 2.5-2.5s-1.119-2.5-2.5-2.5z" fill="#5a7485"/><path d="m254 174h-46.5c-1.381 0-2.5 1.119-2.5 2.5s1.119 2.5 2.5 2.5h46.5c1.381 0 2.5-1.119 2.5-2.5s-1.119-2.5-2.5-2.5z" fill="#5a7485"/><path d="m242 217h-34.5c-1.381 0-2.5 1.119-2.5 2.5s1.119 2.5 2.5 2.5h34.5c1.381 0 2.5-1.119 2.5-2.5s-1.119-2.5-2.5-2.5z" fill="#5a7485"/><path d="m242 245h-34.5c-1.381 0-2.5 1.119-2.5 2.5s1.119 2.5 2.5 2.5h34.5c1.381 0 2.5-1.119 2.5-2.5s-1.119-2.5-2.5-2.5z" fill="#5a7485"/><path d="m225 277h-17.5c-1.381 0-2.5 1.119-2.5 2.5s1.119 2.5 2.5 2.5h17.5c1.381 0 2.5-1.119 2.5-2.5s-1.119-2.5-2.5-2.5z" fill="#5a7485"/><path d="m237 290h-29.5c-1.381 0-2.5 1.119-2.5 2.5s1.119 2.5 2.5 2.5h29.5c1.381 0 2.5-1.119 2.5-2.5s-1.119-2.5-2.5-2.5z" fill="#5a7485"/><path d="m242 231h-34.5c-1.381 0-2.5 1.119-2.5 2.5s1.119 2.5 2.5 2.5h34.5c1.381 0 2.5-1.119 2.5-2.5s-1.119-2.5-2.5-2.5z" fill="#d8d8d8"/><path d="m228 187h-20.5c-1.381 0-2.5 1.119-2.5 2.5s1.119 2.5 2.5 2.5h20.5c1.381 0 2.5-1.119 2.5-2.5s-1.119-2.5-2.5-2.5z" fill="#5a7485"/><path d="m462.5 262h-91c-1.381 0-2.5 1.119-2.5 2.5s1.119 2.5 2.5 2.5h91c1.381 0 2.5-1.119 2.5-2.5s-1.119-2.5-2.5-2.5z" fill="#d8d8d8"/><path d="m482.5 318h-109c-1.381 0-2.5 1.119-2.5 2.5s1.119 2.5 2.5 2.5h109c1.381 0 2.5-1.119 2.5-2.5s-1.119-2.5-2.5-2.5z" fill="#d8d8d8"/><path d="m396.5 329h-23c-1.381 0-2.5 1.119-2.5 2.5s1.119 2.5 2.5 2.5h23c1.381 0 2.5-1.119 2.5-2.5s-1.119-2.5-2.5-2.5z" fill="#d8d8d8"/><path d="m430.5 340h-54c-1.381 0-2.5 1.119-2.5 2.5s1.119 2.5 2.5 2.5h54c1.381 0 2.5-1.119 2.5-2.5s-1.119-2.5-2.5-2.5z" fill="#d8d8d8"/><path d="m481.5 351h-92c-1.381 0-2.5 1.119-2.5 2.5s1.119 2.5 2.5 2.5h92c1.381 0 2.5-1.119 2.5-2.5s-1.119-2.5-2.5-2.5z" fill="#d8d8d8"/><path d="m475.5 362h-67c-1.381 0-2.5 1.119-2.5 2.5s1.119 2.5 2.5 2.5h67c1.381 0 2.5-1.119 2.5-2.5s-1.119-2.5-2.5-2.5z" fill="#d8d8d8"/><path d="m453.5 395h-72c-1.381 0-2.5 1.119-2.5 2.5s1.119 2.5 2.5 2.5h72c1.381 0 2.5-1.119 2.5-2.5s-1.119-2.5-2.5-2.5z" fill="#d8d8d8"/><path d="m425.5 296h-22c-1.381 0-2.5 1.119-2.5 2.5s1.119 2.5 2.5 2.5h22c1.381 0 2.5-1.119 2.5-2.5s-1.119-2.5-2.5-2.5z" fill="#d8d8d8"/><path d="m430.5 307h-20c-1.381 0-2.5 1.119-2.5 2.5s1.119 2.5 2.5 2.5h20c1.381 0 2.5-1.119 2.5-2.5s-1.119-2.5-2.5-2.5z" fill="#d8d8d8"/><path d="m510.5 296h-53c-1.381 0-2.5 1.119-2.5 2.5s1.119 2.5 2.5 2.5h53c1.381 0 2.5-1.119 2.5-2.5s-1.119-2.5-2.5-2.5z" fill="#d8d8d8"/><path d="m514.5 307h-53c-1.381 0-2.5 1.119-2.5 2.5s1.119 2.5 2.5 2.5h53c1.381 0 2.5-1.119 2.5-2.5s-1.119-2.5-2.5-2.5z" fill="#d8d8d8"/><path d="m341.5 174h-12c-1.381 0-2.5 1.119-2.5 2.5s1.119 2.5 2.5 2.5h12c1.381 0 2.5-1.119 2.5-2.5s-1.119-2.5-2.5-2.5z" fill="#ff615e"/><path d="m341.5 185h-12c-1.381 0-2.5 1.119-2.5 2.5s1.119 2.5 2.5 2.5h12c1.381 0 2.5-1.119 2.5-2.5s-1.119-2.5-2.5-2.5z" fill="#ff615e"/><path d="m355.5 196h-11c-1.381 0-2.5 1.119-2.5 2.5s1.119 2.5 2.5 2.5h11c1.381 0 2.5-1.119 2.5-2.5s-1.119-2.5-2.5-2.5z" fill="#ff615e"/><path d="m355.5 218h-11c-1.381 0-2.5 1.119-2.5 2.5s1.119 2.5 2.5 2.5h11c1.381 0 2.5-1.119 2.5-2.5s-1.119-2.5-2.5-2.5z" fill="#ff615e"/><path d="m442.5 218h-22c-1.381 0-2.5 1.119-2.5 2.5s1.119 2.5 2.5 2.5h22c1.381 0 2.5-1.119 2.5-2.5s-1.119-2.5-2.5-2.5z" fill="#ff615e"/><path d="m394.5 196h-29c-1.381 0-2.5 1.119-2.5 2.5s1.119 2.5 2.5 2.5h29c1.381 0 2.5-1.119 2.5-2.5s-1.119-2.5-2.5-2.5z" fill="#fdb148"/><path d="m478.5 196h-23c-1.381 0-2.5 1.119-2.5 2.5s1.119 2.5 2.5 2.5h23c1.381 0 2.5-1.119 2.5-2.5s-1.119-2.5-2.5-2.5z" fill="#fdb148"/><path d="m360.5 174h-9c-1.381 0-2.5 1.119-2.5 2.5s1.119 2.5 2.5 2.5h9c1.381 0 2.5-1.119 2.5-2.5s-1.119-2.5-2.5-2.5z" fill="#fdb148"/><path d="m374.5 218h-9c-1.381 0-2.5 1.119-2.5 2.5s1.119 2.5 2.5 2.5h9c1.381 0 2.5-1.119 2.5-2.5s-1.119-2.5-2.5-2.5z" fill="#fdb148"/><path d="m355.5 240h-11c-1.381 0-2.5 1.119-2.5 2.5s1.119 2.5 2.5 2.5h11c1.381 0 2.5-1.119 2.5-2.5s-1.119-2.5-2.5-2.5z" fill="#ff615e"/><path d="m364.5 318h-8c-1.381 0-2.5 1.119-2.5 2.5s1.119 2.5 2.5 2.5h8c1.381 0 2.5-1.119 2.5-2.5s-1.119-2.5-2.5-2.5z" fill="#ff615e"/><path d="m364.5 329h-8c-1.381 0-2.5 1.119-2.5 2.5s1.119 2.5 2.5 2.5h8c1.381 0 2.5-1.119 2.5-2.5s-1.119-2.5-2.5-2.5z" fill="#ff615e"/><path d="m367.5 340h-11c-1.381 0-2.5 1.119-2.5 2.5s1.119 2.5 2.5 2.5h11c1.381 0 2.5-1.119 2.5-2.5s-1.119-2.5-2.5-2.5z" fill="#ff615e"/><path d="m367.5 351h-11c-1.381 0-2.5 1.119-2.5 2.5s1.119 2.5 2.5 2.5h11c1.381 0 2.5-1.119 2.5-2.5s-1.119-2.5-2.5-2.5z" fill="#ff615e"/><path d="m381.5 406h-11c-1.381 0-2.5 1.119-2.5 2.5s1.119 2.5 2.5 2.5h11c1.381 0 2.5-1.119 2.5-2.5s-1.119-2.5-2.5-2.5z" fill="#ff615e"/><path d="m361.5 539h-11c-1.381 0-2.5 1.119-2.5 2.5s1.119 2.5 2.5 2.5h11c1.381 0 2.5-1.119 2.5-2.5s-1.119-2.5-2.5-2.5z" fill="#ff615e"/><path d="m347.5 550h-11c-1.381 0-2.5 1.119-2.5 2.5s1.119 2.5 2.5 2.5h11c1.381 0 2.5-1.119 2.5-2.5s-1.119-2.5-2.5-2.5z" fill="#ff615e"/><path d="m372.5 484h-2c-1.381 0-2.5 1.119-2.5 2.5s1.119 2.5 2.5 2.5h2c1.381 0 2.5-1.119 2.5-2.5s-1.119-2.5-2.5-2.5z" fill="#ff615e"/><path d="m372.5 395h-16c-1.381 0-2.5 1.119-2.5 2.5s1.119 2.5 2.5 2.5h16c1.381 0 2.5-1.119 2.5-2.5s-1.119-2.5-2.5-2.5z" fill="#ad80a3"/><path d="m379.5 351h-3c-1.381 0-2.5 1.119-2.5 2.5s1.119 2.5 2.5 2.5h3c1.381 0 2.5-1.119 2.5-2.5s-1.119-2.5-2.5-2.5z" fill="#ff615e"/><path d="m405.5 329h-2c-1.381 0-2.5 1.119-2.5 2.5s1.119 2.5 2.5 2.5h2c1.381 0 2.5-1.119 2.5-2.5s-1.119-2.5-2.5-2.5z" fill="#ff615e"/><path d="m438.5 329h-23c-1.381 0-2.5 1.119-2.5 2.5s1.119 2.5 2.5 2.5h23c1.381 0 2.5-1.119 2.5-2.5s-1.119-2.5-2.5-2.5z" fill="#d8d8d8"/><path d="m361.5 262h-17c-1.381 0-2.5 1.119-2.5 2.5s1.119 2.5 2.5 2.5h17c1.381 0 2.5-1.119 2.5-2.5s-1.119-2.5-2.5-2.5z" fill="#ff615e"/><path d="m361.5 273h-17c-1.381 0-2.5 1.119-2.5 2.5s1.119 2.5 2.5 2.5h17c1.381 0 2.5-1.119 2.5-2.5s-1.119-2.5-2.5-2.5z" fill="#ff615e"/><path d="m489.5 262h-17c-1.381 0-2.5 1.119-2.5 2.5s1.119 2.5 2.5 2.5h17c1.381 0 2.5-1.119 2.5-2.5s-1.119-2.5-2.5-2.5z" fill="#ff615e"/><path d="m374.5 240h-9c-1.381 0-2.5 1.119-2.5 2.5s1.119 2.5 2.5 2.5h9c1.381 0 2.5-1.119 2.5-2.5s-1.119-2.5-2.5-2.5z" fill="#fdb148"/><path d="m392.5 296h-36c-1.381 0-2.5 1.119-2.5 2.5s1.119 2.5 2.5 2.5h36c1.381 0 2.5-1.119 2.5-2.5s-1.119-2.5-2.5-2.5z" fill="#fdb148"/><path d="m400.5 307h-44c-1.381 0-2.5 1.119-2.5 2.5s1.119 2.5 2.5 2.5h44c1.381 0 2.5-1.119 2.5-2.5s-1.119-2.5-2.5-2.5z" fill="#fdb148"/><path d="m400.5 362h-44c-1.381 0-2.5 1.119-2.5 2.5s1.119 2.5 2.5 2.5h44c1.381 0 2.5-1.119 2.5-2.5s-1.119-2.5-2.5-2.5z" fill="#fdb148"/><path d="m405.5 406h-15c-1.381 0-2.5 1.119-2.5 2.5s1.119 2.5 2.5 2.5h15c1.381 0 2.5-1.119 2.5-2.5s-1.119-2.5-2.5-2.5z" fill="#fdb148"/><path d="m397.5 417h-15c-1.381 0-2.5 1.119-2.5 2.5s1.119 2.5 2.5 2.5h15c1.381 0 2.5-1.119 2.5-2.5s-1.119-2.5-2.5-2.5z" fill="#d8d8d8"/><path d="m373 430.5c0-1.381-1.119-2.5-2.5-2.5s-2.5 1.119-2.5 2.5 1.119 2.5 2.5 2.5 2.5-1.119 2.5-2.5z" fill="#d8d8d8"/><path d="m358 441.5c0-1.381-1.119-2.5-2.5-2.5s-2.5 1.119-2.5 2.5 1.119 2.5 2.5 2.5 2.5-1.119 2.5-2.5z" fill="#d8d8d8"/><path d="m373 519.5c0-1.381-1.119-2.5-2.5-2.5s-2.5 1.119-2.5 2.5 1.119 2.5 2.5 2.5 2.5-1.119 2.5-2.5z" fill="#d8d8d8"/><path d="m358 530.5c0-1.381-1.119-2.5-2.5-2.5s-2.5 1.119-2.5 2.5 1.119 2.5 2.5 2.5 2.5-1.119 2.5-2.5z" fill="#d8d8d8"/><path d="m454.5 417h-31c-1.381 0-2.5 1.119-2.5 2.5s1.119 2.5 2.5 2.5h31c1.381 0 2.5-1.119 2.5-2.5s-1.119-2.5-2.5-2.5z" fill="#ad80a3"/><path d="m414.5 417h-8c-1.381 0-2.5 1.119-2.5 2.5s1.119 2.5 2.5 2.5h8c1.381 0 2.5-1.119 2.5-2.5s-1.119-2.5-2.5-2.5z" fill="#fdb148"/><path d="m442.5 406h-28c-1.381 0-2.5 1.119-2.5 2.5s1.119 2.5 2.5 2.5h28c1.381 0 2.5-1.119 2.5-2.5s-1.119-2.5-2.5-2.5z" fill="#07c4a0"/><path d="m394.5 484h-14c-1.381 0-2.5 1.119-2.5 2.5s1.119 2.5 2.5 2.5h14c1.381 0 2.5-1.119 2.5-2.5s-1.119-2.5-2.5-2.5z" fill="#fdb148"/><path d="m442.5 495h-9c-1.381 0-2.5 1.119-2.5 2.5s1.119 2.5 2.5 2.5h9c1.381 0 2.5-1.119 2.5-2.5s-1.119-2.5-2.5-2.5z" fill="#fdb148"/><path d="m483.5 495h-31c-1.381 0-2.5 1.119-2.5 2.5s1.119 2.5 2.5 2.5h31c1.381 0 2.5-1.119 2.5-2.5s-1.119-2.5-2.5-2.5z" fill="#ad80a3"/><path d="m461.5 484h-58c-1.381 0-2.5 1.119-2.5 2.5s1.119 2.5 2.5 2.5h58c1.381 0 2.5-1.119 2.5-2.5s-1.119-2.5-2.5-2.5z" fill="#07c4a0"/><path d="m521.5 362h-37c-1.381 0-2.5 1.119-2.5 2.5s1.119 2.5 2.5 2.5h37c1.381 0 2.5-1.119 2.5-2.5s-1.119-2.5-2.5-2.5z" fill="#ad80a3"/><path d="m448.5 296h-13c-1.381 0-2.5 1.119-2.5 2.5s1.119 2.5 2.5 2.5h13c1.381 0 2.5-1.119 2.5-2.5s-1.119-2.5-2.5-2.5z" fill="#fdb148"/><path d="m451.5 307h-10c-1.381 0-2.5 1.119-2.5 2.5s1.119 2.5 2.5 2.5h10c1.381 0 2.5-1.119 2.5-2.5s-1.119-2.5-2.5-2.5z" fill="#fdb148"/><path d="m473.5 395h-10c-1.381 0-2.5 1.119-2.5 2.5s1.119 2.5 2.5 2.5h10c1.381 0 2.5-1.119 2.5-2.5s-1.119-2.5-2.5-2.5z" fill="#fdb148"/><path d="m375.5 174h-5c-1.381 0-2.5 1.119-2.5 2.5s1.119 2.5 2.5 2.5h5c1.381 0 2.5-1.119 2.5-2.5s-1.119-2.5-2.5-2.5z" fill="#07c4a0"/><path d="m446.5 196h-43c-1.381 0-2.5 1.119-2.5 2.5s1.119 2.5 2.5 2.5h43c1.381 0 2.5-1.119 2.5-2.5s-1.119-2.5-2.5-2.5z" fill="#07c4a0"/><path d="m439.5 240h-55c-1.381 0-2.5 1.119-2.5 2.5s1.119 2.5 2.5 2.5h55c1.381 0 2.5-1.119 2.5-2.5s-1.119-2.5-2.5-2.5z" fill="#07c4a0"/><path d="m410.5 218h-26c-1.381 0-2.5 1.119-2.5 2.5s1.119 2.5 2.5 2.5h26c1.381 0 2.5-1.119 2.5-2.5s-1.119-2.5-2.5-2.5z" fill="#07c4a0"/><path d="m511.5 218h-59c-1.381 0-2.5 1.119-2.5 2.5s1.119 2.5 2.5 2.5h59c1.381 0 2.5-1.119 2.5-2.5s-1.119-2.5-2.5-2.5z" fill="#07c4a0"/><path d="m471.5 240h-22c-1.381 0-2.5 1.119-2.5 2.5s1.119 2.5 2.5 2.5h22c1.381 0 2.5-1.119 2.5-2.5s-1.119-2.5-2.5-2.5z" fill="#ff615e"/><path d="m521.5 240h-40c-1.381 0-2.5 1.119-2.5 2.5s1.119 2.5 2.5 2.5h40c1.381 0 2.5-1.119 2.5-2.5s-1.119-2.5-2.5-2.5z" fill="#07c4a0"/><path d="m340.5 572h-8c-1.381 0-2.5 1.119-2.5 2.5s1.119 2.5 2.5 2.5h8c1.381 0 2.5-1.119 2.5-2.5s-1.119-2.5-2.5-2.5z" fill="#ff615e"/><path d="m345.5 639h-13c-1.381 0-2.5 1.119-2.5 2.5s1.119 2.5 2.5 2.5h13c1.381 0 2.5-1.119 2.5-2.5s-1.119-2.5-2.5-2.5z" fill="#ff615e"/><path d="m340.5 605h-8c-1.381 0-2.5 1.119-2.5 2.5s1.119 2.5 2.5 2.5h8c1.381 0 2.5-1.119 2.5-2.5s-1.119-2.5-2.5-2.5z" fill="#ff615e"/><path d="m362.5 572h-13c-1.381 0-2.5 1.119-2.5 2.5s1.119 2.5 2.5 2.5h13c1.381 0 2.5-1.119 2.5-2.5s-1.119-2.5-2.5-2.5z" fill="#fdb148"/><path d="m361.5 583h-29c-1.381 0-2.5 1.119-2.5 2.5s1.119 2.5 2.5 2.5h29c1.381 0 2.5-1.119 2.5-2.5s-1.119-2.5-2.5-2.5z" fill="#fdb148"/><path d="m459.5 572h-88c-1.381 0-2.5 1.119-2.5 2.5s1.119 2.5 2.5 2.5h88c1.381 0 2.5-1.119 2.5-2.5s-1.119-2.5-2.5-2.5z" fill="#07c4a0"/><path d="m374.5 583h-5c-1.381 0-2.5 1.119-2.5 2.5s1.119 2.5 2.5 2.5h5c1.381 0 2.5-1.119 2.5-2.5s-1.119-2.5-2.5-2.5z" fill="#07c4a0"/><path d="m372.5 639h-17c-1.381 0-2.5 1.119-2.5 2.5s1.119 2.5 2.5 2.5h17c1.381 0 2.5-1.119 2.5-2.5s-1.119-2.5-2.5-2.5z" fill="#fdb148"/><path d="m382.5 639h-3c-1.381 0-2.5 1.119-2.5 2.5s1.119 2.5 2.5 2.5h3c1.381 0 2.5-1.119 2.5-2.5s-1.119-2.5-2.5-2.5z" fill="#07c4a0"/><path d="m363.5 651h-31c-1.381 0-2.5 1.119-2.5 2.5s1.119 2.5 2.5 2.5h31c1.381 0 2.5-1.119 2.5-2.5s-1.119-2.5-2.5-2.5z" fill="#fdb148"/><path d="m374.5 651h-3c-1.381 0-2.5 1.119-2.5 2.5s1.119 2.5 2.5 2.5h3c1.381 0 2.5-1.119 2.5-2.5s-1.119-2.5-2.5-2.5z" fill="#07c4a0"/><path d="m405.5 651h-20c-1.381 0-2.5 1.119-2.5 2.5s1.119 2.5 2.5 2.5h20c1.381 0 2.5-1.119 2.5-2.5s-1.119-2.5-2.5-2.5z" fill="#fdb148"/><path d="m440.5 651h-26c-1.381 0-2.5 1.119-2.5 2.5s1.119 2.5 2.5 2.5h26c1.381 0 2.5-1.119 2.5-2.5s-1.119-2.5-2.5-2.5z" fill="#07c4a0"/><path d="m417.5 639h-23c-1.381 0-2.5 1.119-2.5 2.5s1.119 2.5 2.5 2.5h23c1.381 0 2.5-1.119 2.5-2.5s-1.119-2.5-2.5-2.5z" fill="#fdb148"/><path d="m428.5 639h-3c-1.381 0-2.5 1.119-2.5 2.5s1.119 2.5 2.5 2.5h3c1.381 0 2.5-1.119 2.5-2.5s-1.119-2.5-2.5-2.5z" fill="#07c4a0"/><path d="m468.5 639h-28c-1.381 0-2.5 1.119-2.5 2.5s1.119 2.5 2.5 2.5h28c1.381 0 2.5-1.119 2.5-2.5s-1.119-2.5-2.5-2.5z" fill="#fdb148"/><path d="m479.5 639h-3c-1.381 0-2.5 1.119-2.5 2.5s1.119 2.5 2.5 2.5h3c1.381 0 2.5-1.119 2.5-2.5s-1.119-2.5-2.5-2.5z" fill="#07c4a0"/><path d="m527.5 639h-37c-1.381 0-2.5 1.119-2.5 2.5s1.119 2.5 2.5 2.5h37c1.381 0 2.5-1.119 2.5-2.5s-1.119-2.5-2.5-2.5z" fill="#fdb148"/><path d="m539.5 639h-3c-1.381 0-2.5 1.119-2.5 2.5s1.119 2.5 2.5 2.5h3c1.381 0 2.5-1.119 2.5-2.5s-1.119-2.5-2.5-2.5z" fill="#07c4a0"/><path d="m412.5 583h-29c-1.381 0-2.5 1.119-2.5 2.5s1.119 2.5 2.5 2.5h29c1.381 0 2.5-1.119 2.5-2.5s-1.119-2.5-2.5-2.5z" fill="#fdb148"/><path d="m425.5 583h-5c-1.381 0-2.5 1.119-2.5 2.5s1.119 2.5 2.5 2.5h5c1.381 0 2.5-1.119 2.5-2.5s-1.119-2.5-2.5-2.5z" fill="#07c4a0"/><path d="m463.5 583h-29c-1.381 0-2.5 1.119-2.5 2.5s1.119 2.5 2.5 2.5h29c1.381 0 2.5-1.119 2.5-2.5s-1.119-2.5-2.5-2.5z" fill="#fdb148"/><path d="m476.5 583h-5c-1.381 0-2.5 1.119-2.5 2.5s1.119 2.5 2.5 2.5h5c1.381 0 2.5-1.119 2.5-2.5s-1.119-2.5-2.5-2.5z" fill="#07c4a0"/><path d="m528.5 583h-43c-1.381 0-2.5 1.119-2.5 2.5s1.119 2.5 2.5 2.5h43c1.381 0 2.5-1.119 2.5-2.5s-1.119-2.5-2.5-2.5z" fill="#fdb148"/><path d="m542.5 583h-5c-1.381 0-2.5 1.119-2.5 2.5s1.119 2.5 2.5 2.5h5c1.381 0 2.5-1.119 2.5-2.5s-1.119-2.5-2.5-2.5z" fill="#07c4a0"/><path d="m490.5 572h-22c-1.381 0-2.5 1.119-2.5 2.5s1.119 2.5 2.5 2.5h22c1.381 0 2.5-1.119 2.5-2.5s-1.119-2.5-2.5-2.5z" fill="#ff615e"/><path d="m526.5 572h-27c-1.381 0-2.5 1.119-2.5 2.5s1.119 2.5 2.5 2.5h27c1.381 0 2.5-1.119 2.5-2.5s-1.119-2.5-2.5-2.5z" fill="#07c4a0"/><path d="m543.5 296h-24c-1.381 0-2.5 1.119-2.5 2.5s1.119 2.5 2.5 2.5h24c1.381 0 2.5-1.119 2.5-2.5s-1.119-2.5-2.5-2.5z" fill="#07c4a0"/><path d="m547.5 307h-24c-1.381 0-2.5 1.119-2.5 2.5s1.119 2.5 2.5 2.5h24c1.381 0 2.5-1.119 2.5-2.5s-1.119-2.5-2.5-2.5z" fill="#07c4a0"/><path d="m387.5 207h-43c-1.381 0-2.5 1.119-2.5 2.5s1.119 2.5 2.5 2.5h43c1.381 0 2.5-1.119 2.5-2.5s-1.119-2.5-2.5-2.5z" fill="#07c4a0"/><path d="m517.5 229h-173c-1.381 0-2.5 1.119-2.5 2.5s1.119 2.5 2.5 2.5h173c1.381 0 2.5-1.119 2.5-2.5s-1.119-2.5-2.5-2.5z" fill="#399ce7"/><path d="m500.5 251h-156c-1.381 0-2.5 1.119-2.5 2.5s1.119 2.5 2.5 2.5h156c1.381 0 2.5-1.119 2.5-2.5s-1.119-2.5-2.5-2.5z" fill="#399ce7"/><path d="m481.5 285h-125c-1.381 0-2.5 1.119-2.5 2.5s1.119 2.5 2.5 2.5h125c1.381 0 2.5-1.119 2.5-2.5s-1.119-2.5-2.5-2.5z" fill="#399ce7"/><path d="m501.5 384h-145c-1.381 0-2.5 1.119-2.5 2.5s1.119 2.5 2.5 2.5h145c1.381 0 2.5-1.119 2.5-2.5s-1.119-2.5-2.5-2.5z" fill="#399ce7"/><path d="m453.5 473h-72c-1.381 0-2.5 1.119-2.5 2.5s1.119 2.5 2.5 2.5h72c1.381 0 2.5-1.119 2.5-2.5s-1.119-2.5-2.5-2.5z" fill="#d8d8d8"/><path d="m424.5 495h-40c-1.381 0-2.5 1.119-2.5 2.5s1.119 2.5 2.5 2.5h40c1.381 0 2.5-1.119 2.5-2.5s-1.119-2.5-2.5-2.5z" fill="#d8d8d8"/><path d="m446.5 506h-17c-1.381 0-2.5 1.119-2.5 2.5s1.119 2.5 2.5 2.5h17c1.381 0 2.5-1.119 2.5-2.5s-1.119-2.5-2.5-2.5z" fill="#fdb148"/><path d="m485.5 506h-29c-1.381 0-2.5 1.119-2.5 2.5s1.119 2.5 2.5 2.5h29c1.381 0 2.5-1.119 2.5-2.5s-1.119-2.5-2.5-2.5z" fill="#ad80a3"/><path d="m420.5 506h-36c-1.381 0-2.5 1.119-2.5 2.5s1.119 2.5 2.5 2.5h36c1.381 0 2.5-1.119 2.5-2.5s-1.119-2.5-2.5-2.5z" fill="#d8d8d8"/><path d="m372.5 473h-16c-1.381 0-2.5 1.119-2.5 2.5s1.119 2.5 2.5 2.5h16c1.381 0 2.5-1.119 2.5-2.5s-1.119-2.5-2.5-2.5z" fill="#ad80a3"/><path d="m473.5 473h-10c-1.381 0-2.5 1.119-2.5 2.5s1.119 2.5 2.5 2.5h10c1.381 0 2.5-1.119 2.5-2.5s-1.119-2.5-2.5-2.5z" fill="#fdb148"/><path d="m501.5 462h-145c-1.381 0-2.5 1.119-2.5 2.5s1.119 2.5 2.5 2.5h145c1.381 0 2.5-1.119 2.5-2.5s-1.119-2.5-2.5-2.5z" fill="#399ce7"/><path d="m450.5 627h-119c-1.381 0-2.5 1.119-2.5 2.5s1.119 2.5 2.5 2.5h119c1.381 0 2.5-1.119 2.5-2.5s-1.119-2.5-2.5-2.5z" fill="#399ce7"/><path d="m518.5 196h-31c-1.381 0-2.5 1.119-2.5 2.5s1.119 2.5 2.5 2.5h31c1.381 0 2.5-1.119 2.5-2.5s-1.119-2.5-2.5-2.5z" fill="#07c4a0"/><path d="m447.5 329h-2c-1.381 0-2.5 1.119-2.5 2.5s1.119 2.5 2.5 2.5h2c1.381 0 2.5-1.119 2.5-2.5s-1.119-2.5-2.5-2.5z" fill="#ff615e"/><path d="m439.5 340h-2c-1.381 0-2.5 1.119-2.5 2.5s1.119 2.5 2.5 2.5h2c1.381 0 2.5-1.119 2.5-2.5s-1.119-2.5-2.5-2.5z" fill="#ff615e"/><g fill="#fff" opacity=".60235604546"><path d="m29.908 456h-33.70115c-1.65686 0-3 1.343-3 3v3.023c0 1.657 1.34314 3 3 3h33.70115c1.6568 0 3-1.343 3-3v-3.023c0-1.657-1.3432-3-3-3z" opacity=".776116"/><path d="m66 479.46h-95.0575c-1.6568 0-3 1.343-3 3v3.023c0 1.657 1.3432 3 3 3h95.0575c1.6568 0 3-1.343 3-3v-3.023c0-1.657-1.3432-3-3-3z" opacity=".776116"/><path d="m38.931 520.966h-95.0575c-1.6568 0-3 1.343-3 3v3.023c0 1.656 1.3432 3 3 3h95.0575c1.6569 0 3-1.344 3-3v-3.023c0-1.657-1.3431-3-3-3z" opacity=".478069"/><path d="m65.9999 566.08h-86.0344c-1.6569 0-3 1.344-3 3v3.023c0 1.657 1.3431 3 3 3h86.0344c1.6569 0 3-1.343 3-3v-3.023c0-1.656-1.3431-3-3-3z" opacity=".776116"/><path d="m66 456h-22.8736c-1.6569 0-3 1.343-3 3v3.023c0 1.657 1.3431 3 3 3h22.8736c1.6568 0 3-1.343 3-3v-3.023c0-1.657-1.3432-3-3-3z" opacity=".478069"/><path d="m11.862 542.621h-60.7701c-1.6568 0-3 1.343-3 3v3.023c0 1.657 1.3432 3 3 3h60.7701c1.6569 0 3-1.343 3-3v-3.023c0-1.657-1.3431-3-3-3z" opacity=".478069"/><path d="m-.770119 499.31h-22.873581c-1.6568 0-3 1.343-3 3v3.023c0 1.657 1.3432 3 3 3h22.873581c1.656855 0 2.999999-1.343 2.999999-3v-3.023c0-1.657-1.343144-3-2.999999-3z" opacity=".776116"/><path d="m40.7356 499.31h-30.0919c-1.65688 0-3.00002 1.343-3.00002 3v3.023c0 1.657 1.34314 3 3.00002 3h30.0919c1.6569 0 3-1.343 3-3v-3.023c0-1.657-1.3431-3-3-3z" opacity=".776116"/><path d="m24.4942 589.54h-28.28735c-1.65686 0-3 1.343-3 3v3.023c0 1.657 1.34314 3 3 3h28.28735c1.6569 0 3-1.343 3-3v-3.023c0-1.657-1.3431-3-3-3z" opacity=".776116"/><path d="m66 589.54h-30.092c-1.6568 0-3 1.343-3 3v3.023c0 1.657 1.3432 3 3 3h30.092c1.6568 0 3-1.343 3-3v-3.023c0-1.657-1.3432-3-3-3z" opacity=".465346"/></g><g fill="#fff" opacity=".60235604546"><path d="m146.908 40h-33.701c-1.657 0-3 1.3431-3 3v3.023c0 1.6568 1.343 3 3 3h33.701c1.657 0 3-1.3432 3-3v-3.023c0-1.6569-1.343-3-3-3z" opacity=".776116"/><path d="m183 63.4598h-95.0575c-1.6568 0-3 1.3431-3 3v3.023c0 1.6568 1.3432 3 3 3h95.0575c1.657 0 3-1.3432 3-3v-3.023c0-1.6569-1.343-3-3-3z" opacity=".776116"/><path d="m155.931 104.966h-95.0575c-1.6568 0-3 1.343-3 3v3.023c0 1.656 1.3432 3 3 3h95.0575c1.657 0 3-1.344 3-3v-3.023c0-1.657-1.343-3-3-3z" opacity=".478069"/><path d="m183 150.08h-86.0345c-1.6568 0-3 1.344-3 3v3.023c0 1.657 1.3432 3 3 3h86.0345c1.657 0 3-1.343 3-3v-3.023c0-1.656-1.343-3-3-3z" opacity=".776116"/><path d="m183 40h-22.874c-1.656 0-3 1.3431-3 3v3.023c0 1.6568 1.344 3 3 3h22.874c1.657 0 3-1.3432 3-3v-3.023c0-1.6569-1.343-3-3-3z" opacity=".478069"/><path d="m80.1379 83.3103h-33.7011c-1.6569 0-3 1.3432-3 3v3.023c0 1.6569 1.3431 3 3 3h33.7011c1.6569 0 3-1.3431 3-3v-3.023c0-1.6568-1.3431-3-3-3z" opacity=".478069"/><path d="m56.6782 126.621h-24.6782c-1.6569 0-3 1.343-3 3v3.023c0 1.657 1.3431 3 3 3h24.6782c1.6568 0 3-1.343 3-3v-3.023c0-1.657-1.3432-3-3-3z" opacity=".776116"/><path d="m128.862 126.621h-60.77c-1.6569 0-3 1.343-3 3v3.023c0 1.657 1.3431 3 3 3h60.77c1.657 0 3-1.343 3-3v-3.023c0-1.657-1.343-3-3-3z" opacity=".478069"/><path d="m116.23 83.3103h-22.8737c-1.6568 0-3 1.3432-3 3v3.023c0 1.6569 1.3432 3 3 3h22.8737c1.657 0 3-1.3431 3-3v-3.023c0-1.6568-1.343-3-3-3z" opacity=".776116"/><path d="m157.736 83.3103h-30.092c-1.657 0-3 1.3432-3 3v3.023c0 1.6569 1.343 3 3 3h30.092c1.656 0 3-1.3431 3-3v-3.023c0-1.6568-1.344-3-3-3z" opacity=".776116"/><path d="m141.494 173.54h-28.287c-1.657 0-3 1.343-3 3v3.023c0 1.657 1.343 3 3 3h28.287c1.657 0 3-1.343 3-3v-3.023c0-1.657-1.343-3-3-3z" opacity=".776116"/><path d="m183 173.54h-30.092c-1.657 0-3 1.343-3 3v3.023c0 1.657 1.343 3 3 3h30.092c1.657 0 3-1.343 3-3v-3.023c0-1.657-1.343-3-3-3z" opacity=".465346"/></g><g fill="#353a44" opacity=".60235604546"><path d="m1331.09 656h33.7c1.66 0 3-1.343 3-3v-3.023c0-1.657-1.34-3-3-3h-33.7c-1.65 0-3 1.343-3 3v3.023c0 1.657 1.35 3 3 3z" opacity=".776116"/><path d="m1295 632.54h95.06c1.65 0 3-1.343 3-3v-3.023c0-1.657-1.35-3-3-3h-95.06c-1.66 0-3 1.343-3 3v3.023c0 1.657 1.34 3 3 3z" opacity=".776116"/><path d="m1322.07 591.034h95.06c1.65 0 3-1.343 3-3v-3.023c0-1.656-1.35-3-3-3h-95.06c-1.66 0-3 1.344-3 3v3.023c0 1.657 1.34 3 3 3z" opacity=".478069"/><path d="m1295 545.92h86.03c1.66 0 3-1.344 3-3v-3.023c0-1.657-1.34-3-3-3h-86.03c-1.66 0-3 1.343-3 3v3.023c0 1.656 1.34 3 3 3z" opacity=".776116"/><path d="m1295 656h22.87c1.66 0 3-1.343 3-3v-3.023c0-1.657-1.34-3-3-3h-22.87c-1.66 0-3 1.343-3 3v3.023c0 1.657 1.34 3 3 3z" opacity=".478069"/><path d="m1349.14 569.379h60.77c1.65 0 3-1.343 3-3v-3.023c0-1.657-1.35-3-3-3h-60.77c-1.66 0-3 1.343-3 3v3.023c0 1.657 1.34 3 3 3z" opacity=".478069"/><path d="m1361.77 612.69h22.87c1.66 0 3-1.343 3-3v-3.023c0-1.657-1.34-3-3-3h-22.87c-1.66 0-3 1.343-3 3v3.023c0 1.657 1.34 3 3 3z" opacity=".776116"/><path d="m1320.26 612.69h30.1c1.65 0 3-1.343 3-3v-3.023c0-1.657-1.35-3-3-3h-30.1c-1.65 0-3 1.343-3 3v3.023c0 1.657 1.35 3 3 3z" opacity=".776116"/><path d="m1336.51 522.46h28.28c1.66 0 3-1.343 3-3v-3.023c0-1.657-1.34-3-3-3h-28.28c-1.66 0-3 1.343-3 3v3.023c0 1.657 1.34 3 3 3z" opacity=".776116"/><path d="m1295 522.46h30.09c1.66 0 3-1.343 3-3v-3.023c0-1.657-1.34-3-3-3h-30.09c-1.66 0-3 1.343-3 3v3.023c0 1.657 1.34 3 3 3z" opacity=".465346"/></g><g fill="#fff" opacity=".60235604546"><path d="m1339.91 296h-33.7c-1.66 0-3-1.343-3-3v-3.023c0-1.657 1.34-3 3-3h33.7c1.65 0 3 1.343 3 3v3.023c0 1.657-1.35 3-3 3z" opacity=".776116"/><path d="m1376 272.54h-95.06c-1.65 0-3-1.343-3-3v-3.023c0-1.657 1.35-3 3-3h95.06c1.66 0 3 1.343 3 3v3.023c0 1.657-1.34 3-3 3z" opacity=".776116"/><path d="m1348.93 231.034h-95.06c-1.65 0-3-1.343-3-3v-3.023c0-1.656 1.35-3 3-3h95.06c1.66 0 3 1.344 3 3v3.023c0 1.657-1.34 3-3 3z" opacity=".478069"/><path d="m1376 185.92h-86.03c-1.66 0-3-1.344-3-3v-3.023c0-1.657 1.34-3 3-3h86.03c1.66 0 3 1.343 3 3v3.023c0 1.656-1.34 3-3 3z" opacity=".776116"/><path d="m1376 296h-22.87c-1.66 0-3-1.343-3-3v-3.023c0-1.657 1.34-3 3-3h22.87c1.66 0 3 1.343 3 3v3.023c0 1.657-1.34 3-3 3z" opacity=".478069"/><path d="m1273.14 252.69h-33.7c-1.66 0-3-1.343-3-3v-3.023c0-1.657 1.34-3 3-3h33.7c1.65 0 3 1.343 3 3v3.023c0 1.657-1.35 3-3 3z" opacity=".478069"/><path d="m1249.68 209.379h-24.68c-1.66 0-3-1.343-3-3v-3.023c0-1.657 1.34-3 3-3h24.68c1.66 0 3 1.343 3 3v3.023c0 1.657-1.34 3-3 3z" opacity=".776116"/><path d="m1321.86 209.379h-60.77c-1.65 0-3-1.343-3-3v-3.023c0-1.657 1.35-3 3-3h60.77c1.66 0 3 1.343 3 3v3.023c0 1.657-1.34 3-3 3z" opacity=".478069"/><path d="m1309.23 252.69h-22.87c-1.66 0-3-1.343-3-3v-3.023c0-1.657 1.34-3 3-3h22.87c1.66 0 3 1.343 3 3v3.023c0 1.657-1.34 3-3 3z" opacity=".776116"/><path d="m1350.74 252.69h-30.1c-1.65 0-3-1.343-3-3v-3.023c0-1.657 1.35-3 3-3h30.1c1.65 0 3 1.343 3 3v3.023c0 1.657-1.35 3-3 3z" opacity=".776116"/><path d="m1334.49 162.46h-28.28c-1.66 0-3-1.343-3-3v-3.023c0-1.657 1.34-3 3-3h28.28c1.66 0 3 1.343 3 3v3.023c0 1.657-1.34 3-3 3z" opacity=".776116"/><path d="m1376 162.46h-30.09c-1.66 0-3-1.343-3-3v-3.023c0-1.657 1.34-3 3-3h30.09c1.66 0 3 1.343 3 3v3.023c0 1.657-1.34 3-3 3z" opacity=".465346"/></g></g><path clip-rule="evenodd" d="m1138.95 427.112h-193.207c-5.678 0-10.643 3.827-12.088 9.319l-31.899 121.207c-1.757 6.676 2.231 13.513 8.907 15.27 1.038.273 2.107.411 3.181.411h193.216c5.67 0 10.64-3.827 12.08-9.318l31.9-121.208c1.76-6.676-2.23-13.512-8.9-15.269-1.04-.274-2.11-.412-3.19-.412z" fill="#fdb148" fill-rule="evenodd"/><g mask="url(#c)"><path d="m1102.02 665.899-8.34-47.271c-.96-5.439-6.15-9.07-11.58-8.111-5.44.959-9.07 6.145-8.12 11.584l8.34 47.271c.96 5.439 6.15 9.07 11.58 8.111 5.44-.959 9.07-6.145 8.12-11.584z" fill="#ff615e"/><path d="m1114.02 693.899-8.34-47.271c-.96-5.439-6.15-9.07-11.58-8.111-5.44.959-9.07 6.145-8.12 11.584l8.34 47.271c.96 5.439 6.15 9.07 11.58 8.111 5.44-.959 9.07-6.145 8.12-11.584z" fill="#fdb148"/></g><path d="m1062.02 665.899-8.34-47.271c-.96-5.439-6.15-9.071-11.58-8.111-5.44.959-9.07 6.145-8.12 11.584l8.34 47.271c.96 5.439 6.15 9.07 11.58 8.111 5.44-.959 9.07-6.145 8.12-11.584z" fill="#ff615e"/><path d="m963.984 665.899 8.335-47.271c.96-5.439 6.146-9.071 11.585-8.111 5.439.959 9.071 6.145 8.112 11.584l-8.335 47.271c-.96 5.439-6.146 9.07-11.585 8.111s-9.071-6.145-8.112-11.584z" fill="#ff615e" opacity=".598549"/><path d="m923.984 665.899 8.335-47.271c.96-5.439 6.146-9.071 11.585-8.111 5.439.959 9.071 6.145 8.112 11.584l-8.335 47.271c-.96 5.439-6.146 9.07-11.585 8.111s-9.071-6.145-8.112-11.584z" fill="#ff615e" opacity=".598549"/><path d="m1100 578h-183c-7.732 0-14 6.268-14 14s6.268 14 14 14h183c7.73 0 14-6.268 14-14s-6.27-14-14-14z" fill="#ff615e"/><path d="m1010 578h-183c-7.732 0-14 6.268-14 14s6.268 14 14 14h183c7.73 0 14-6.268 14-14s-6.27-14-14-14z" fill="#ab4d4e"/><path clip-rule="evenodd" d="m731 182h116c11.046 0 20 8.954 20 20v57.5c0 42.802-34.698 77.5-77.5 77.5h-1c-42.802 0-77.5-34.698-77.5-77.5v-57.5c0-11.046 8.954-20 20-20z" fill="#4a82c2" fill-rule="evenodd"/><g mask="url(#d)"><path d="m933.5 71c99.14 0 179.5 80.365 179.5 179.5v199.5c0 76.768-62.23 139-139 139h-81c-76.768 0-139-62.232-139-139v-199.5c0-99.135 80.365-179.5 179.5-179.5z" fill="#255ea0"/><g clip-rule="evenodd" fill="#164881" fill-rule="evenodd"><path d="m904.373 675.572 81.967-68.778c4.23-3.55 4.782-9.858 1.232-14.088l-71.671-85.414c-22.542-26.866-62.595-30.37-89.461-7.827-26.865 22.542-30.369 62.595-7.826 89.461l71.67 85.414c3.55 4.23 9.858 4.782 14.089 1.232z"/><path d="m1060.4 193.201 117.53 58.288c4.95 2.454 6.97 8.454 4.52 13.402-.35.711-.79 1.377-1.3 1.985l-57.07 68.015c-29.64 35.327-82.31 39.935-117.64 10.292l-6.17-5.174c-27.835-23.36-31.467-64.867-8.106-92.708 1.924-2.292 4.001-4.45 6.218-6.46l50.858-46.091c3.05-2.762 7.47-3.376 11.16-1.549z"/><path d="m965.794 367.671 77.566 27.077c12.04 4.205 20.11 15.567 20.11 28.324v10.737c0 16.569-13.43 30-30 30h-186.871l34.67-63.567c16.406-30.081 52.176-43.864 84.525-32.571z"/></g></g><g mask="url(#e)"><path d="m582.01 25.7464c40.686 1.2916 73.542 33.6444 75.462 74.3056l1.987 42.09c2.079 44.053 38.42 78.69 82.522 78.653l43.91-.037c19.257-.016 34.881 15.582 34.897 34.839v.029c0 19.025-15.423 34.449-34.449 34.449-.148 0-.297-.001-.446-.003l-68.552-.888c-55.085-.713-100.093-44.189-102.715-99.216l-3.325-69.807c-.684-14.379-12.896-25.4794-27.274-24.7946-.674.0322-1.347.0905-2.017.1748z" fill="#255ea0"/><path clip-rule="evenodd" d="m552.01 75.7464c40.686 1.2916 73.542 33.6446 75.462 74.3056l1.987 42.09c2.079 44.053 38.42 78.69 82.522 78.653l43.91-.037c19.257-.016 34.881 15.582 34.897 34.839v.029c0 19.025-15.423 34.449-34.449 34.449-.148 0-.297-.001-.446-.003l-68.552-.888c-55.085-.713-100.093-44.189-102.715-99.216l-3.325-69.807c-.684-14.379-12.896-25.479-27.274-24.795-.674.033-1.347.091-2.017.175z" fill="#204d88" fill-rule="evenodd"/></g><path clip-rule="evenodd" d="m1032.37 124.695c22.75-14.012 29.63-38.8671 29.63-49.695-7.8 7.6289-13.96 18.4813-32.86 18.4813-18.89 0-37.14-10.8279-37.14 0 0 10.8277 17.63 45.2247 40.37 31.2137z" fill="#255ea0" fill-rule="evenodd"/><path clip-rule="evenodd" d="m1048.71 577.422c26.64 2.033 46.82-14.028 53.18-22.788-10.79 1.586-22.15 6.746-37.44-4.361-15.29-11.106-23.69-30.593-30.05-21.833-6.37 8.76-12.32 46.949 14.31 48.982z" fill="#255ea0" fill-rule="evenodd"/><path clip-rule="evenodd" d="m1017.49 104.445c15.74-9.4298 20.51-26.1577 20.51-33.445-5.4 5.1343-9.66 12.4381-22.74 12.4381s-19.586-2.7173-28.362-4.4469c-8.776-1.7297 14.852 34.8838 30.592 25.4538z" fill="#255ea0" fill-rule="evenodd"/><path d="m885.5 225c10.77 0 19.5-8.954 19.5-20s-8.73-20-19.5-20-19.5 8.954-19.5 20 8.73 20 19.5 20z" fill="#fff"/><path d="m880.5 222c4.142 0 7.5-3.582 7.5-8s-3.358-8-7.5-8-7.5 3.582-7.5 8 3.358 8 7.5 8z" fill="#004879"/><path d="m821.5 225c10.77 0 19.5-8.954 19.5-20s-8.73-20-19.5-20-19.5 8.954-19.5 20 8.73 20 19.5 20z" fill="#fff"/><path d="m815.5 222c4.142 0 7.5-3.582 7.5-8s-3.358-8-7.5-8-7.5 3.582-7.5 8 3.358 8 7.5 8z" fill="#004879"/><path clip-rule="evenodd" d="m878.172 252.425c10.889 0 19.716-8.928 19.716-19.941-16.024 0-21.425 0-39.431 0 0 11.013 8.827 19.941 19.715 19.941z" fill="#4f9ad3" fill-rule="evenodd"/><path clip-rule="evenodd" d="m812.454 252.425c10.888 0 19.715-8.928 19.715-19.941-16.024 0-21.425 0-39.431 0 0 11.013 8.827 19.941 19.716 19.941z" fill="#4f9ad3" fill-rule="evenodd"/><path clip-rule="evenodd" d="m869.696 252.425c10.888 0 19.715-8.928 19.715-19.941-16.024 0-21.425 0-39.431 0 0 11.013 8.827 19.941 19.716 19.941z" fill="#6dc6f9" fill-rule="evenodd"/><path clip-rule="evenodd" d="m803.977 252.425c10.889 0 19.716-8.928 19.716-19.941-16.025 0-21.425 0-39.432 0 0 11.013 8.827 19.941 19.716 19.941z" fill="#6dc6f9" fill-rule="evenodd"/><path d="m854.29 233.038c-2.508-4.778-7.518-8.038-13.29-8.038-5.585 0-10.458 3.053-13.04 7.581" stroke="#2e3139" stroke-linecap="round" stroke-width="8"/><path d="m843.174 183.646-37.489-10.75c-3.716-1.065-7.593 1.083-8.658 4.8-1.066 3.716 1.083 7.592 4.799 8.658l37.489 10.75c3.716 1.065 7.593-1.083 8.658-4.8 1.066-3.716-1.083-7.592-4.799-8.658z" fill="#2e3139"/><path d="m905.218 162.092-36.648-13.339c-3.633-1.322-7.65.551-8.972 4.183-1.322 3.633.551 7.65 4.184 8.972l36.648 13.339c3.633 1.322 7.65-.551 8.972-4.183 1.322-3.633-.551-7.65-4.184-8.972z" fill="#2e3139"/><path clip-rule="evenodd" d="m960.808 204.128 131.552-47.883c10.38-3.778 21.86 1.574 25.64 11.953l22.57 62.02c16.25 44.632-6.77 93.983-51.4 110.227l-7.52 2.737c-44.63 16.244-93.978-6.768-110.222-51.4l-22.574-62.02c-3.778-10.379 1.574-21.856 11.954-25.634z" fill="#4a82c2" fill-rule="evenodd"/><path clip-rule="evenodd" d="m605.567 317.112h193.65c6.039 0 11.214 4.317 12.297 10.258l23.921 131.207c1.238 6.792-3.264 13.302-10.056 14.54-.739.135-1.49.202-2.242.202h-193.65c-6.039 0-11.214-4.317-12.297-10.258l-23.92-131.207c-1.239-6.792 3.263-13.301 10.055-14.539.74-.135 1.49-.203 2.242-.203z" fill="#e3e3e3" fill-rule="evenodd"/><path clip-rule="evenodd" d="m594.614 317.112h193.65c6.039 0 11.214 4.317 12.297 10.258l23.921 131.207c1.238 6.792-3.264 13.302-10.056 14.54-.74.135-1.49.202-2.242.202h-193.65c-6.039 0-11.214-4.317-12.297-10.258l-23.921-131.207c-1.238-6.792 3.264-13.301 10.056-14.539.74-.135 1.49-.203 2.242-.203z" fill="#fff" fill-rule="evenodd"/><path d="m917 458h-260c-7.732 0-14 6.268-14 14s6.268 14 14 14h260c7.732 0 14-6.268 14-14s-6.268-14-14-14z" fill="#c1bfbf"/><path d="m840 458h-183c-7.732 0-14 6.268-14 14s6.268 14 14 14h183c7.732 0 14-6.268 14-14s-6.268-14-14-14z" fill="#e3e3e3"/><g mask="url(#f)"><path d="m793 678h107c5.523 0 10-4.477 10-10v-111.5c0-35.07-28.43-63.5-63.5-63.5s-63.5 28.43-63.5 63.5v111.5c0 5.523 4.477 10 10 10z" fill="#4a82c2"/><path d="m831.002 538.393c10.38-3.778 16.957-11.889 14.69-18.117-2.267-6.227-12.519-8.213-22.898-4.436-10.38 3.778-16.956 11.889-14.69 18.117 2.267 6.228 12.519 8.214 22.898 4.436z" fill="#6aa7ed"/><path clip-rule="evenodd" d="m890 698h107c5.52 0 10-4.477 10-10v-111.5c0-35.07-28.43-63.5-63.5-63.5s-63.5 28.43-63.5 63.5v111.5c0 5.523 4.477 10 10 10z" fill="#255ea0" fill-rule="evenodd" opacity=".548605"/></g><path clip-rule="evenodd" d="m788 675.784h25.371c.552 0 1-.447 1-1v-25.194c0-7.559-6.127-13.686-13.686-13.686-7.558 0-13.685 6.127-13.685 13.686v25.194c0 .553.448 1 1 1z" fill="#6dc6f9" fill-rule="evenodd"/><path clip-rule="evenodd" d="m820.845 675.784h25.371c.552 0 1-.447 1-1v-25.194c0-7.559-6.128-13.686-13.686-13.686s-13.685 6.127-13.685 13.686v25.194c0 .553.448 1 1 1z" fill="#6dc6f9" fill-rule="evenodd"/><path clip-rule="evenodd" d="m853.69 675.784h25.37c.553 0 1-.447 1-1v-25.194c0-7.559-6.127-13.686-13.685-13.686s-13.685 6.127-13.685 13.686v25.194c0 .553.447 1 1 1z" fill="#6dc6f9" fill-rule="evenodd"/><g mask="url(#g)"><path d="m590.059 607.97 81.967 68.778c4.23 3.55 10.538 2.998 14.088-1.232l71.671-85.414c22.542-26.865 19.038-66.918-7.827-89.461s-66.918-19.039-89.461 7.827l-71.671 85.414c-3.55 4.23-2.998 10.538 1.233 14.088z" fill="#4a82c2"/><path clip-rule="evenodd" d="m660.059 672.97 81.967 68.778c4.23 3.55 10.538 2.998 14.088-1.232l71.671-85.414c22.542-26.865 19.038-66.918-7.827-89.461s-66.918-19.039-89.461 7.827l-71.671 85.414c-3.55 4.23-2.998 10.538 1.233 14.088z" fill="#356eaf" fill-rule="evenodd"/></g><path d="m711.794 526.393c10.379 3.778 20.631 1.792 22.898-4.436s-4.31-14.339-14.69-18.117c-10.379-3.777-20.631-1.791-22.898 4.436-2.266 6.228 4.31 14.339 14.69 18.117z" fill="#6aa7ed"/><path clip-rule="evenodd" d="m584.588 600.488 19.436 16.308c.423.355 1.053.299 1.408-.124l16.195-19.3c4.859-5.79 4.103-14.422-1.686-19.28-5.79-4.859-14.422-4.104-19.281 1.686l-16.195 19.301c-.355.423-.3 1.054.123 1.409z" fill="#6dc6f9" fill-rule="evenodd"/><path clip-rule="evenodd" d="m609.749 621.6 19.435 16.308c.423.355 1.054.3 1.409-.123l16.195-19.301c4.858-5.79 4.103-14.422-1.687-19.28s-14.422-4.103-19.28 1.687l-16.195 19.3c-.355.423-.3 1.054.123 1.409z" fill="#6dc6f9" fill-rule="evenodd"/><path clip-rule="evenodd" d="m634.91 642.712 19.435 16.308c.423.355 1.054.3 1.409-.123l16.195-19.301c4.858-5.789 4.103-14.422-1.687-19.28s-14.422-4.103-19.281 1.687l-16.195 19.3c-.355.423-.299 1.054.124 1.409z" fill="#6dc6f9" fill-rule="evenodd"/><path d="m582.5 96c19.054 0 34.5-15.67 34.5-35s-15.446-35-34.5-35-34.5 15.67-34.5 35 15.446 35 34.5 35z" fill="#6dc6f9"/><path d="m578 52.5c0-2.4853-2.015-4.5-4.5-4.5s-4.5 2.0147-4.5 4.5v15c0 2.4853 2.015 4.5 4.5 4.5s4.5-2.0147 4.5-4.5z" fill="#0f4a7e"/><path d="m593 52.5c0-2.4853-2.015-4.5-4.5-4.5s-4.5 2.0147-4.5 4.5v15c0 2.4853 2.015 4.5 4.5 4.5s4.5-2.0147 4.5-4.5z" fill="#0f4a7e"/><g mask="url(#h)"><path d="m960.794 358.671 77.566 27.077c12.04 4.205 20.11 15.567 20.11 28.324v10.737c0 16.569-13.43 30-30 30h-186.871l34.67-63.567c16.406-30.081 52.176-43.864 84.525-32.571z" fill="#558ccb"/><g clip-rule="evenodd" fill="#fff" fill-rule="evenodd"><path d="m848.933 455.984 10.432 6.022c.384.222.87.1 1.084-.272l10.306-17.849c1.826-3.162.659-7.254-2.606-9.139-3.265-1.884-7.391-.849-9.217 2.313l-10.305 17.85c-.215.372-.078.853.306 1.075z"/><path d="m870.933 455.984 10.432 6.022c.384.222.87.1 1.084-.272l10.306-17.849c1.826-3.162.659-7.254-2.606-9.139-3.265-1.884-7.391-.849-9.217 2.313l-10.305 17.85c-.215.372-.078.853.306 1.075z"/><path d="m892.933 455.984 10.432 6.022c.384.222.87.1 1.084-.272l10.306-17.849c1.826-3.162.659-7.254-2.606-9.139-3.265-1.884-7.391-.849-9.217 2.313l-10.305 17.85c-.215.372-.078.853.306 1.075z"/></g><path d="m925.002 395.393c10.38-3.778 16.957-11.889 14.69-18.117-2.267-6.227-12.519-8.213-22.898-4.436-10.38 3.778-16.956 11.889-14.69 18.117 2.267 6.228 12.519 8.214 22.898 4.436z" fill="#6aa7ed"/><path d="m958.792 394.695c5.449-1.984 8.795-6.537 7.473-10.17-1.322-3.632-6.812-4.97-12.261-2.986-5.449 1.983-8.795 6.536-7.473 10.169 1.323 3.633 6.812 4.97 12.261 2.987z" fill="#6aa7ed"/></g><g fill="#255ea0"><path d="m647.8 396.3 1.4 8.2h-5.2l-4-23.4h9.9c1.9 0 3.6.3 5.2 1 1.6.6 2.8 1.6 3.8 2.7 1 1.2 1.6 2.5 1.8 4 .4 2.3-.2 4.1-1.7 5.4s-3.7 2-6.7 2h-4.5zm-.6-3.8h4.7c1.4 0 2.4-.3 3-.9s.9-1.5.7-2.6-.7-2.1-1.6-2.8-1.9-1.1-3.2-1.1h-4.8z"/><path d="m686.4 401.6c-.8 1-1.9 1.8-3.6 2.4-1.6.6-3.5.9-5.6.9-2.2 0-4.2-.4-6-1.3s-3.3-2.2-4.5-3.8c-1.2-1.7-2-3.7-2.4-5.9l-.3-1.6c-.4-2.3-.3-4.3.2-6 .6-1.7 1.6-3 3-3.9 1.5-.9 3.3-1.4 5.4-1.4 3 0 5.5.7 7.4 2s3.3 3.2 4 5.8h-5.1c-.5-1.3-1.2-2.3-2.1-2.9s-2-.9-3.4-.9c-1.8 0-3 .6-3.7 1.8s-.9 3.1-.4 5.5l.3 1.5c.4 2.4 1.3 4.3 2.5 5.6s2.8 1.9 4.8 1.9 3.3-.4 4-1.2l-.7-4h-4.8l-.6-3.5h10z"/><path d="m706.8 385.1h-7.8l3.5 19.5h-5.2l-3.5-19.5h-7.7l-.7-3.9h20.7z"/><path d="m722.6 402.8c-1 1.4-2.6 2.1-4.8 2.1-2 0-3.7-.5-4.9-1.6-1.3-1.1-2.1-2.6-2.5-4.7l-2.2-11.4h5l2.1 11.2c.3 1.8 1.4 2.7 3.2 2.7 1.7 0 2.8-.5 3.2-1.6l-2.3-12.3h5.1l3.2 17.4h-4.7z"/><path d="m733 387.2.5 2c1.1-1.6 2.7-2.3 5-2.3 2 0 3.6.5 4.8 1.6s2 2.7 2.4 4.8l2.1 11.2h-5l-2.1-11.1c-.2-1-.5-1.7-1.1-2.1-.5-.4-1.4-.7-2.4-.7-1.4 0-2.4.6-2.9 1.7l2.3 12.2h-5l-3.3-17.4h4.7z"/><path d="m760.3 404.9c-2.8 0-5.2-.8-7.2-2.3-2-1.6-3.3-3.6-3.8-6.2l-.1-.4c-.3-1.7-.3-3.3.2-4.7s1.3-2.4 2.5-3.2c1.2-.7 2.7-1.1 4.4-1.1 2.6 0 4.8.7 6.5 2.2 1.8 1.5 2.9 3.6 3.4 6.4l.4 1.9h-12c.4 1.1 1 2 2 2.7s2.1 1 3.3 1c1.9 0 3.3-.6 4.2-1.9l3 2.6c-.6 1-1.4 1.8-2.6 2.3-1.3.4-2.7.7-4.2.7zm-3.3-14.2c-1 0-1.8.3-2.3.9s-.7 1.5-.7 2.7h7v-.4c-.2-1-.7-1.8-1.4-2.4s-1.6-.8-2.6-.8z"/></g></g></svg>